<svg width="25" height="25" viewBox="0 0 25 25" fill="none" xmlns="http://www.w3.org/2000/svg">
<path d="M2.08325 9.37492C2.08325 7.41034 2.08325 6.42909 2.69367 5.81867C3.30409 5.20825 4.28534 5.20825 6.24992 5.20825H18.7499C20.7145 5.20825 21.6958 5.20825 22.3062 5.81867C22.9166 6.42909 22.9166 7.41034 22.9166 9.37492C22.9166 9.86554 22.9166 10.1114 22.7645 10.2645C22.6114 10.4166 22.3645 10.4166 21.8749 10.4166H3.12492C2.63429 10.4166 2.38846 10.4166 2.23534 10.2645C2.08325 10.1114 2.08325 9.8645 2.08325 9.37492Z" fill="#DEDEDE"/>
<path fill-rule="evenodd" clip-rule="evenodd" d="M2.08325 18.75C2.08325 20.7146 2.08325 21.6958 2.69367 22.3062C3.30409 22.9167 4.28534 22.9167 6.24992 22.9167H18.7499C20.7145 22.9167 21.6958 22.9167 22.3062 22.3062C22.9166 21.6958 22.9166 20.7146 22.9166 18.75V13.5417C22.9166 13.051 22.9166 12.8052 22.7645 12.6521C22.6114 12.5 22.3645 12.5 21.8749 12.5H3.12492C2.63429 12.5 2.38846 12.5 2.23534 12.6521C2.08325 12.8052 2.08325 13.0521 2.08325 13.5417V18.75ZM7.29158 15.625C7.29158 15.1344 7.29158 14.8885 7.44367 14.7354C7.59679 14.5833 7.84367 14.5833 8.33325 14.5833H10.4166C10.9072 14.5833 11.153 14.5833 11.3062 14.7354C11.4583 14.8885 11.4583 15.1344 11.4583 15.625C11.4583 16.1156 11.4583 16.3615 11.3062 16.5146C11.153 16.6667 10.9062 16.6667 10.4166 16.6667H8.33325C7.84263 16.6667 7.59679 16.6667 7.44367 16.5146C7.29158 16.3615 7.29158 16.1146 7.29158 15.625ZM7.44367 18.9021C7.29158 19.0552 7.29158 19.3021 7.29158 19.7917C7.29158 20.2812 7.29158 20.5281 7.44367 20.6812C7.59679 20.8333 7.84367 20.8333 8.33325 20.8333H10.4166C10.9072 20.8333 11.153 20.8333 11.3062 20.6812C11.4583 20.5281 11.4583 20.2812 11.4583 19.7917C11.4583 19.3021 11.4583 19.0552 11.3062 18.9021C11.153 18.75 10.9062 18.75 10.4166 18.75H8.33325C7.84263 18.75 7.59679 18.75 7.44367 18.9021ZM13.5416 15.625C13.5416 15.1344 13.5416 14.8885 13.6937 14.7354C13.8468 14.5833 14.0937 14.5833 14.5833 14.5833H16.6666C17.1572 14.5833 17.403 14.5833 17.5562 14.7354C17.7083 14.8885 17.7083 15.1344 17.7083 15.625C17.7083 16.1156 17.7083 16.3615 17.5562 16.5146C17.403 16.6667 17.1562 16.6667 16.6666 16.6667H14.5833C14.0926 16.6667 13.8468 16.6667 13.6937 16.5146C13.5416 16.3615 13.5416 16.1146 13.5416 15.625ZM13.6937 18.9021C13.5416 19.0552 13.5416 19.3021 13.5416 19.7917C13.5416 20.2812 13.5416 20.5281 13.6937 20.6812C13.8468 20.8333 14.0926 20.8333 14.5833 20.8333H16.6666C17.1572 20.8333 17.403 20.8333 17.5562 20.6812C17.7083 20.5281 17.7083 20.2812 17.7083 19.7917C17.7083 19.3021 17.7083 19.0552 17.5562 18.9021C17.403 18.75 17.1562 18.75 16.6666 18.75H14.5833C14.0926 18.75 13.8468 18.75 13.6937 18.9021Z" fill="#DEDEDE"/>
<path d="M7.2915 3.125V6.25M17.7082 3.125V6.25" stroke="#DEDEDE" stroke-width="2" stroke-linecap="round"/>
</svg>
