<svg width="25" height="25" viewBox="0 0 25 25" fill="none" xmlns="http://www.w3.org/2000/svg">
<path d="M13.1176 24.227L13.1062 24.2291L13.0322 24.2656L13.0114 24.2697L12.9968 24.2656L12.9229 24.2291C12.9117 24.2257 12.9034 24.2274 12.8979 24.2343L12.8937 24.2447L12.876 24.6906L12.8812 24.7114L12.8916 24.725L12.9999 24.802L13.0156 24.8062L13.0281 24.802L13.1364 24.725L13.1489 24.7083L13.1531 24.6906L13.1354 24.2458C13.1326 24.2347 13.1267 24.2284 13.1176 24.227ZM13.3937 24.1093L13.3801 24.1114L13.1874 24.2083L13.177 24.2187L13.1739 24.2302L13.1926 24.6781L13.1979 24.6906L13.2062 24.6979L13.4156 24.7947C13.4288 24.7982 13.4388 24.7954 13.4458 24.7864L13.4499 24.7718L13.4145 24.1322C13.411 24.1197 13.4041 24.1121 13.3937 24.1093ZM12.6489 24.1114C12.6443 24.1086 12.6388 24.1077 12.6336 24.1089C12.6283 24.1101 12.6237 24.1132 12.6208 24.1177L12.6145 24.1322L12.5791 24.7718C12.5798 24.7843 12.5857 24.7927 12.5968 24.7968L12.6124 24.7947L12.8218 24.6979L12.8322 24.6895L12.8364 24.6781L12.8541 24.2302L12.851 24.2177L12.8406 24.2072L12.6489 24.1114Z" fill="#DEDEDE"/>
<path d="M12.5002 2.08325C18.2533 2.08325 22.9168 6.74679 22.9168 12.4999C22.9168 18.253 18.2533 22.9166 12.5002 22.9166C6.74704 22.9166 2.0835 18.253 2.0835 12.4999C2.0835 6.74679 6.74704 2.08325 12.5002 2.08325ZM12.5002 6.24992C12.2239 6.24992 11.9589 6.35967 11.7636 6.55502C11.5682 6.75037 11.4585 7.01532 11.4585 7.29158V12.4999C11.4586 12.7762 11.5683 13.0411 11.7637 13.2364L14.8887 16.3614C15.0852 16.5511 15.3483 16.6561 15.6214 16.6537C15.8945 16.6514 16.1558 16.5418 16.3489 16.3487C16.5421 16.1556 16.6516 15.8943 16.654 15.6212C16.6564 15.348 16.5514 15.0849 16.3616 14.8885L13.5418 12.0687V7.29158C13.5418 7.01532 13.4321 6.75037 13.2367 6.55502C13.0414 6.35967 12.7764 6.24992 12.5002 6.24992Z" fill="#DEDEDE"/>
</svg>
