<svg width="85" height="12" viewBox="0 0 85 12" fill="none" xmlns="http://www.w3.org/2000/svg">
<path d="M4.44742 3.85885L0.346745 4.29874C0.198847 4.31607 0.0680741 4.41173 0.0190342 4.5571C-0.0300057 4.70248 0.0190341 4.85388 0.128012 4.94954C1.347 6.02592 3.17861 7.63785 3.17861 7.63785C3.17705 7.63785 2.67575 9.98268 2.34259 11.5472C2.32671 11.618 2.33245 11.6917 2.35912 11.7594C2.38578 11.8271 2.43221 11.8859 2.49276 11.9285C2.55331 11.9711 2.62537 11.9958 2.70015 11.9995C2.77493 12.0032 2.84921 11.9858 2.91395 11.9494C4.34934 11.16 6.49931 9.97289 6.49931 9.97289L10.0831 11.9501C10.2139 12.0194 10.3774 12.0179 10.5042 11.9283C10.5646 11.8857 10.611 11.8272 10.6379 11.7597C10.6649 11.6922 10.6711 11.6187 10.656 11.5479L9.82235 7.63785L12.8729 4.9518C12.9282 4.90317 12.9678 4.84016 12.987 4.77032C13.0062 4.70047 13.0041 4.62676 12.9811 4.558C12.9581 4.48925 12.9151 4.42837 12.8573 4.38265C12.7994 4.33694 12.7292 4.30833 12.655 4.30025C11.0141 4.12248 8.55354 3.85885 8.55354 3.85885L6.85427 0.220708C6.82345 0.154912 6.77369 0.099102 6.71095 0.0599595C6.6482 0.0208169 6.57513 0 6.50048 0C6.42583 0 6.35275 0.0208169 6.29001 0.0599595C6.22727 0.099102 6.17751 0.154912 6.14669 0.220708L4.44742 3.85885Z" fill="#3289FF"/>
<path d="M22.4474 3.85885L18.3467 4.29874C18.1988 4.31607 18.0681 4.41173 18.019 4.5571C17.97 4.70248 18.019 4.85388 18.128 4.94954C19.347 6.02592 21.1786 7.63785 21.1786 7.63785C21.1771 7.63785 20.6758 9.98268 20.3426 11.5472C20.3267 11.618 20.3325 11.6917 20.3591 11.7594C20.3858 11.8271 20.4322 11.8859 20.4928 11.9285C20.5533 11.9711 20.6254 11.9958 20.7001 11.9995C20.7749 12.0032 20.8492 11.9858 20.9139 11.9494C22.3493 11.16 24.4993 9.97289 24.4993 9.97289L28.0831 11.9501C28.2139 12.0194 28.3774 12.0179 28.5042 11.9283C28.5646 11.8857 28.611 11.8272 28.6379 11.7597C28.6649 11.6922 28.6711 11.6187 28.656 11.5479L27.8224 7.63785L30.8729 4.9518C30.9282 4.90317 30.9678 4.84016 30.987 4.77032C31.0062 4.70047 31.0041 4.62676 30.9811 4.558C30.9581 4.48925 30.9151 4.42837 30.8573 4.38265C30.7994 4.33694 30.7292 4.30833 30.655 4.30025C29.0141 4.12248 26.5535 3.85885 26.5535 3.85885L24.8543 0.220708C24.8235 0.154912 24.7737 0.099102 24.7109 0.0599595C24.6482 0.0208169 24.5751 0 24.5005 0C24.4258 0 24.3528 0.0208169 24.29 0.0599595C24.2273 0.099102 24.1775 0.154912 24.1467 0.220708L22.4474 3.85885Z" fill="#3289FF"/>
<path d="M40.4474 3.85885L36.3467 4.29874C36.1988 4.31607 36.0681 4.41173 36.019 4.5571C35.97 4.70248 36.019 4.85388 36.128 4.94954C37.347 6.02592 39.1786 7.63785 39.1786 7.63785C39.1771 7.63785 38.6758 9.98268 38.3426 11.5472C38.3267 11.618 38.3325 11.6917 38.3591 11.7594C38.3858 11.8271 38.4322 11.8859 38.4928 11.9285C38.5533 11.9711 38.6254 11.9958 38.7001 11.9995C38.7749 12.0032 38.8492 11.9858 38.9139 11.9494C40.3493 11.16 42.4993 9.97289 42.4993 9.97289L46.0831 11.9501C46.2139 12.0194 46.3774 12.0179 46.5042 11.9283C46.5646 11.8857 46.611 11.8272 46.6379 11.7597C46.6649 11.6922 46.6711 11.6187 46.656 11.5479L45.8224 7.63785L48.8729 4.9518C48.9282 4.90317 48.9678 4.84016 48.987 4.77032C49.0062 4.70047 49.0041 4.62676 48.9811 4.558C48.9581 4.48925 48.9151 4.42837 48.8573 4.38265C48.7994 4.33694 48.7292 4.30833 48.655 4.30025C47.0141 4.12248 44.5535 3.85885 44.5535 3.85885L42.8543 0.220708C42.8235 0.154912 42.7737 0.099102 42.7109 0.0599595C42.6482 0.0208169 42.5751 0 42.5005 0C42.4258 0 42.3528 0.0208169 42.29 0.0599595C42.2273 0.099102 42.1775 0.154912 42.1467 0.220708L40.4474 3.85885Z" fill="#3289FF"/>
<path d="M58.4474 3.85885L54.3467 4.29874C54.1988 4.31607 54.0681 4.41173 54.019 4.5571C53.97 4.70248 54.019 4.85388 54.128 4.94954C55.347 6.02592 57.1786 7.63785 57.1786 7.63785C57.1771 7.63785 56.6758 9.98268 56.3426 11.5472C56.3267 11.618 56.3325 11.6917 56.3591 11.7594C56.3858 11.8271 56.4322 11.8859 56.4928 11.9285C56.5533 11.9711 56.6254 11.9958 56.7001 11.9995C56.7749 12.0032 56.8492 11.9858 56.9139 11.9494C58.3493 11.16 60.4993 9.97289 60.4993 9.97289L64.0831 11.9501C64.2139 12.0194 64.3774 12.0179 64.5042 11.9283C64.5646 11.8857 64.611 11.8272 64.6379 11.7597C64.6649 11.6922 64.6711 11.6187 64.656 11.5479L63.8224 7.63785L66.8729 4.9518C66.9282 4.90317 66.9678 4.84016 66.987 4.77032C67.0062 4.70047 67.0041 4.62676 66.9811 4.558C66.9581 4.48925 66.9151 4.42837 66.8573 4.38265C66.7994 4.33694 66.7292 4.30833 66.655 4.30025C65.0141 4.12248 62.5535 3.85885 62.5535 3.85885L60.8543 0.220708C60.8235 0.154912 60.7737 0.099102 60.7109 0.0599595C60.6482 0.0208169 60.5751 0 60.5005 0C60.4258 0 60.3528 0.0208169 60.29 0.0599595C60.2273 0.099102 60.1775 0.154912 60.1467 0.220708L58.4474 3.85885Z" fill="#3289FF"/>
<path d="M76.4474 3.85885L72.3467 4.29874C72.1988 4.31607 72.0681 4.41173 72.019 4.5571C71.97 4.70248 72.019 4.85388 72.128 4.94954C73.347 6.02592 75.1786 7.63785 75.1786 7.63785C75.1771 7.63785 74.6758 9.98268 74.3426 11.5472C74.3267 11.618 74.3325 11.6917 74.3591 11.7594C74.3858 11.8271 74.4322 11.8859 74.4928 11.9285C74.5533 11.9711 74.6254 11.9958 74.7001 11.9995C74.7749 12.0032 74.8492 11.9858 74.9139 11.9494C76.3493 11.16 78.4993 9.97289 78.4993 9.97289L82.0831 11.9501C82.2139 12.0194 82.3774 12.0179 82.5042 11.9283C82.5646 11.8857 82.611 11.8272 82.6379 11.7597C82.6649 11.6922 82.6711 11.6187 82.656 11.5479L81.8224 7.63785L84.8729 4.9518C84.9282 4.90317 84.9678 4.84016 84.987 4.77032C85.0062 4.70047 85.0041 4.62676 84.9811 4.558C84.9581 4.48925 84.9151 4.42837 84.8573 4.38265C84.7994 4.33694 84.7292 4.30833 84.655 4.30025C83.0141 4.12248 80.5535 3.85885 80.5535 3.85885L78.8543 0.220708C78.8235 0.154912 78.7737 0.099102 78.7109 0.0599595C78.6482 0.0208169 78.5751 0 78.5005 0C78.4258 0 78.3528 0.0208169 78.29 0.0599595C78.2273 0.099102 78.1775 0.154912 78.1467 0.220708L76.4474 3.85885Z" fill="#3289FF"/>
</svg>
