<svg width="65" height="65" viewBox="0 0 65 65" fill="none" xmlns="http://www.w3.org/2000/svg">
<rect width="65" height="65" rx="8" fill="#E5F0FF"/>
<path d="M39.0414 30.2233C39.8029 29.4617 40.4122 29.0048 40.8691 28.5479C43.306 26.111 45.7429 22.3033 44.2198 20.7802C42.6968 19.2571 39.0414 21.6941 36.6045 24.131C36.1476 24.5879 35.6906 25.1971 34.9291 25.9587L24.2676 21.0848C23.2015 20.6279 21.983 20.7802 21.2215 21.5417L20.3076 22.3033L30.3599 30.9848C28.3799 33.4217 26.2476 35.7063 25.1814 37.0771L23.5061 36.1632C22.7445 35.7063 21.6784 35.7063 21.0692 36.4678L20.6122 36.9248L24.8768 40.1232L27.923 44.3878L28.3799 43.9309C28.9891 43.3217 29.1414 42.2555 28.6845 41.494L27.923 39.8186C29.2937 38.7525 31.5783 36.6202 34.0153 34.6402L42.6968 44.6924L43.4583 43.9309C44.2198 43.1694 44.3721 41.9509 43.9152 40.8848L39.0414 30.2233Z" fill="#3289FF"/>
</svg>
