<svg width="25" height="26" viewBox="0 0 25 26" fill="none" xmlns="http://www.w3.org/2000/svg">
<path d="M7.43089 6.94072L7.5584 7.05212L18.9485 18.4409C19.0978 18.59 19.2098 18.7722 19.2755 18.9728C19.3411 19.1733 19.3586 19.3865 19.3264 19.595C19.2943 19.8036 19.2134 20.0016 19.0903 20.173C18.9673 20.3445 18.8056 20.4845 18.6183 20.5817L18.4626 20.6488L4.52363 25.7855C1.90362 26.7519 -0.647943 24.2889 0.147994 21.6729L0.215105 21.477L5.35044 7.538C5.41834 7.35336 5.52599 7.1859 5.66578 7.04747C5.80557 6.90904 5.97408 6.80304 6.15938 6.73696C6.34468 6.67088 6.54224 6.64635 6.73808 6.66509C6.93391 6.68383 7.12323 6.74539 7.29264 6.84542L7.43089 6.94072ZM19.5525 12.7713C20.7753 12.8358 22.4517 13.0935 23.9093 13.9686C24.2048 14.1438 24.4219 14.4256 24.5159 14.756C24.6098 15.0865 24.5735 15.4404 24.4144 15.7448C24.2553 16.0493 23.9855 16.2812 23.6606 16.3927C23.3357 16.5042 22.9803 16.4869 22.6678 16.3443L22.5282 16.2705C21.6128 15.7202 20.4424 15.5054 19.4116 15.4517C18.9868 15.4283 18.561 15.4301 18.1364 15.4571L17.7123 15.4987C17.3622 15.5439 17.0083 15.4493 16.7274 15.2355C16.4465 15.0216 16.2612 14.7057 16.2116 14.3561C16.162 14.0066 16.2521 13.6516 16.4624 13.368C16.6727 13.0844 16.9863 12.8951 17.3351 12.8411C18.0703 12.7463 18.8128 12.7224 19.5525 12.77M22.2705 9.03055C22.6125 9.03127 22.9413 9.16251 23.1898 9.39746C23.4383 9.63241 23.5878 9.95337 23.6076 10.2948C23.6275 10.6362 23.5163 10.9723 23.2967 11.2345C23.0772 11.4967 22.7658 11.6652 22.4262 11.7056L22.2705 11.715H21.3202C20.9782 11.7143 20.6494 11.583 20.4009 11.3481C20.1524 11.1131 20.0029 10.7922 19.9831 10.4508C19.9632 10.1094 20.0744 9.77323 20.294 9.51103C20.5135 9.24883 20.8249 9.08034 21.1645 9.03995L21.3202 9.03055H22.2705ZM17.9995 8.00107C18.2306 8.23219 18.3695 8.53969 18.39 8.86589C18.4105 9.19208 18.3113 9.51455 18.1109 9.7728L17.9995 9.89897L16.5754 11.3231C16.3339 11.5638 16.0098 11.7036 15.6689 11.714C15.3281 11.7244 14.996 11.6046 14.7403 11.3791C14.4845 11.1536 14.3241 10.8391 14.2918 10.4997C14.2594 10.1602 14.3575 9.82111 14.5661 9.55134L14.6775 9.42517L16.1003 8.00241C16.2249 7.87762 16.373 7.77862 16.5359 7.71107C16.6989 7.64352 16.8735 7.60876 17.0499 7.60876C17.2263 7.60876 17.401 7.64352 17.5639 7.71107C17.7268 7.77862 17.8749 7.87628 17.9995 8.00107ZM14.5272 0.934275C15.1285 2.74091 14.8064 4.71934 14.4306 6.10183C14.2056 6.96402 13.8954 7.80167 13.5044 8.60239C13.3455 8.92099 13.0665 9.1634 12.7288 9.27629C12.3911 9.38919 12.0224 9.36332 11.7038 9.20437C11.3852 9.04543 11.1428 8.76643 11.0299 8.42875C10.917 8.09108 10.9429 7.72238 11.1019 7.40378C11.4142 6.7607 11.6615 6.08805 11.8401 5.39582C12.1448 4.27909 12.2978 3.06707 12.0629 2.07382L11.981 1.7839C11.9225 1.61604 11.898 1.43824 11.9087 1.2608C11.9195 1.08337 11.9654 0.909849 12.0438 0.750308C12.1222 0.590767 12.2315 0.448387 12.3654 0.331432C12.4993 0.214478 12.655 0.125279 12.8236 0.0690128C12.9923 0.012747 13.1704 -0.00946442 13.3476 0.00366789C13.5249 0.0168002 13.6978 0.0650145 13.8563 0.145512C14.0148 0.22601 14.1557 0.337187 14.2709 0.47259C14.3861 0.607994 14.4732 0.764925 14.5272 0.934275ZM21.7953 4.20661C22.047 4.45831 22.1883 4.79965 22.1883 5.15556C22.1883 5.51147 22.047 5.85281 21.7953 6.10451L20.8464 7.05346C20.7226 7.18166 20.5745 7.28391 20.4107 7.35426C20.247 7.4246 20.0708 7.46163 19.8926 7.46318C19.7144 7.46472 19.5376 7.43076 19.3727 7.36328C19.2077 7.29579 19.0579 7.19612 18.9319 7.0701C18.8058 6.94407 18.7062 6.79421 18.6387 6.62926C18.5712 6.4643 18.5372 6.28756 18.5388 6.10934C18.5403 5.93112 18.5774 5.755 18.6477 5.59124C18.718 5.42748 18.8203 5.27938 18.9485 5.15556L19.8974 4.20661C20.1491 3.95498 20.4905 3.81363 20.8464 3.81363C21.2023 3.81363 21.5436 3.95498 21.7953 4.20661Z" fill="#3289FF"/>
</svg>
