<svg width="25" height="21" viewBox="0 0 25 21" fill="none" xmlns="http://www.w3.org/2000/svg">
<path fill-rule="evenodd" clip-rule="evenodd" d="M17.0025 0C17.6907 2.33816e-05 18.3652 0.191636 18.9506 0.553372C19.5359 0.915108 20.009 1.43268 20.3168 2.04811L22.0289 5.4711C22.3304 5.34757 22.6268 5.21416 22.9184 5.07087C23.2116 4.92442 23.551 4.90046 23.8618 5.00424C24.1727 5.10803 24.4297 5.33106 24.5761 5.62428C24.7226 5.9175 24.7465 6.25688 24.6427 6.56777C24.539 6.87866 24.3159 7.13559 24.0227 7.28204C23.7258 7.41419 23.4272 7.54267 23.1271 7.66745L24.3142 10.0429C24.5719 10.558 24.706 11.126 24.7058 11.7019V14.8235C24.7058 15.3449 24.5958 15.8604 24.3829 16.3364C24.1701 16.8123 23.8592 17.238 23.4705 17.5856V19.147C23.4705 19.6384 23.2753 20.1097 22.9278 20.4572C22.5803 20.8047 22.109 20.9999 21.6176 20.9999C21.1262 20.9999 20.6549 20.8047 20.3074 20.4572C19.9599 20.1097 19.7647 19.6384 19.7647 19.147V18.5294H4.94116V19.147C4.94116 19.6384 4.74594 20.1097 4.39845 20.4572C4.05096 20.8047 3.57966 20.9999 3.08823 20.9999C2.5968 20.9999 2.1255 20.8047 1.778 20.4572C1.43051 20.1097 1.23529 19.6384 1.23529 19.147V17.5856C0.476822 16.9062 0 15.9204 0 14.8235V11.7007C0.00023085 11.1256 0.134296 10.5585 0.391587 10.0441L1.56882 7.68721C1.2707 7.56204 0.976292 7.42739 0.685587 7.28327C0.39385 7.13492 0.172088 6.87788 0.0681048 6.56755C-0.0358782 6.25722 -0.013755 5.91845 0.129706 5.62428C0.202166 5.47905 0.302538 5.34951 0.425084 5.24309C0.54763 5.13666 0.689948 5.05543 0.843903 5.00404C0.997859 4.95264 1.16043 4.93209 1.32233 4.94356C1.48424 4.95503 1.64229 4.99829 1.78747 5.07087C2.07982 5.21499 2.37629 5.3484 2.67688 5.4711L4.38899 2.04935C4.69664 1.43369 5.16965 0.91586 5.75503 0.553897C6.34041 0.191935 7.01503 0.000138086 7.70327 0H17.0025ZM6.7941 11.1176C6.30267 11.1176 5.83137 11.3128 5.48388 11.6603C5.13638 12.0078 4.94116 12.4791 4.94116 12.9706C4.94116 13.462 5.13638 13.9333 5.48388 14.2808C5.83137 14.6283 6.30267 14.8235 6.7941 14.8235C7.28553 14.8235 7.75683 14.6283 8.10432 14.2808C8.45182 13.9333 8.64704 13.462 8.64704 12.9706C8.64704 12.4791 8.45182 12.0078 8.10432 11.6603C7.75683 11.3128 7.28553 11.1176 6.7941 11.1176ZM17.9117 11.1176C17.4203 11.1176 16.949 11.3128 16.6015 11.6603C16.254 12.0078 16.0588 12.4791 16.0588 12.9706C16.0588 13.462 16.254 13.9333 16.6015 14.2808C16.949 14.6283 17.4203 14.8235 17.9117 14.8235C18.4031 14.8235 18.8744 14.6283 19.2219 14.2808C19.5694 13.9333 19.7647 13.462 19.7647 12.9706C19.7647 12.4791 19.5694 12.0078 19.2219 11.6603C18.8744 11.3128 18.4031 11.1176 17.9117 11.1176ZM7.70327 2.47058C7.49995 2.47055 7.29977 2.52071 7.12049 2.6166C6.9412 2.71249 6.78835 2.85115 6.67551 3.02029L6.59892 3.1537L5.0301 6.28887C6.94234 6.86204 9.51915 7.41174 12.3529 7.41174C14.9989 7.41174 17.4188 6.93245 19.2829 6.40251L19.6745 6.28887L18.1069 3.1537C18.016 2.97188 17.8816 2.81531 17.7157 2.69787C17.5498 2.58043 17.3574 2.50576 17.1557 2.48046L17.0038 2.47058H7.70327Z" fill="#3289FF"/>
</svg>
