<svg width="13" height="16" viewBox="0 0 13 16" fill="none" xmlns="http://www.w3.org/2000/svg">
<path d="M6.19086 0.538636L5.29195 0L5.12072 1.03375C4.8482 2.66607 3.73311 4.18281 2.50317 5.24867C0.0953571 7.33615 -0.431864 9.60484 0.313665 11.4776C1.02709 13.2697 2.83776 14.4968 4.67555 14.7016L5.10075 14.7486C4.04916 14.1058 3.37426 12.6041 3.60969 11.4819C3.84227 10.3789 4.6356 9.34587 6.15947 8.39273L6.92783 7.91331L7.21463 8.77299C7.38371 9.28095 7.67621 9.68903 7.97371 10.1035C8.1164 10.3033 8.26122 10.5052 8.39392 10.7199C8.85265 11.4655 8.97394 12.2945 8.67786 13.117C8.40819 13.8647 7.96372 14.4526 7.35089 14.7786L8.04291 14.7016C9.76798 14.5096 11.0343 13.9196 11.8569 12.933C12.6723 11.9549 12.9584 10.6957 12.9584 9.35515C12.9584 8.10665 12.4455 6.81963 11.8405 5.74878C11.1313 4.49458 10.206 3.45298 9.19581 2.44348C9.02102 2.79306 9.03458 2.93432 8.67501 3.49578C8.20808 2.25582 7.33166 1.21252 6.19086 0.538636Z" fill="black"/>
</svg>
