<svg width="25" height="25" viewBox="0 0 25 25" fill="none" xmlns="http://www.w3.org/2000/svg">
<path fill-rule="evenodd" clip-rule="evenodd" d="M11.7313 23.0562C11.7313 23.0562 4.16675 16.6853 4.16675 10.4166C4.16675 8.20645 5.04472 6.08683 6.60753 4.52403C8.17033 2.96123 10.2899 2.08325 12.5001 2.08325C14.7102 2.08325 16.8298 2.96123 18.3926 4.52403C19.9554 6.08683 20.8334 8.20645 20.8334 10.4166C20.8334 16.6853 13.2688 23.0562 13.2688 23.0562C12.848 23.4437 12.1553 23.4395 11.7313 23.0562ZM12.5001 14.0624C12.9789 14.0624 13.4529 13.9681 13.8953 13.7849C14.3376 13.6017 14.7395 13.3331 15.0781 12.9946C15.4166 12.656 15.6852 12.2541 15.8684 11.8118C16.0516 11.3695 16.1459 10.8954 16.1459 10.4166C16.1459 9.93781 16.0516 9.46372 15.8684 9.02139C15.6852 8.57905 15.4166 8.17714 15.0781 7.83859C14.7395 7.50004 14.3376 7.23149 13.8953 7.04827C13.4529 6.86505 12.9789 6.77075 12.5001 6.77075C11.5331 6.77075 10.6058 7.15487 9.92209 7.83859C9.23836 8.52232 8.85425 9.44965 8.85425 10.4166C8.85425 11.3835 9.23836 12.3109 9.92209 12.9946C10.6058 13.6783 11.5331 14.0624 12.5001 14.0624Z" fill="#DEDEDE"/>
</svg>
